G75*
G70*
%OFA0B0*%
%FSLAX24Y24*%
%IPPOS*%
%LPD*%
%AMOC8*
5,1,8,0,0,1.08239X$1,22.5*
%
%ADD10C,0.0000*%
%ADD11C,0.0160*%
D10*
X000705Y001438D02*
X000707Y001488D01*
X000713Y001538D01*
X000723Y001587D01*
X000737Y001635D01*
X000754Y001682D01*
X000775Y001727D01*
X000800Y001771D01*
X000828Y001812D01*
X000860Y001851D01*
X000894Y001888D01*
X000931Y001922D01*
X000971Y001952D01*
X001013Y001979D01*
X001057Y002003D01*
X001103Y002024D01*
X001150Y002040D01*
X001198Y002053D01*
X001248Y002062D01*
X001297Y002067D01*
X001348Y002068D01*
X001398Y002065D01*
X001447Y002058D01*
X001496Y002047D01*
X001544Y002032D01*
X001590Y002014D01*
X001635Y001992D01*
X001678Y001966D01*
X001719Y001937D01*
X001758Y001905D01*
X001794Y001870D01*
X001826Y001832D01*
X001856Y001792D01*
X001883Y001749D01*
X001906Y001705D01*
X001925Y001659D01*
X001941Y001611D01*
X001953Y001562D01*
X001961Y001513D01*
X001965Y001463D01*
X001965Y001413D01*
X001961Y001363D01*
X001953Y001314D01*
X001941Y001265D01*
X001925Y001217D01*
X001906Y001171D01*
X001883Y001127D01*
X001856Y001084D01*
X001826Y001044D01*
X001794Y001006D01*
X001758Y000971D01*
X001719Y000939D01*
X001678Y000910D01*
X001635Y000884D01*
X001590Y000862D01*
X001544Y000844D01*
X001496Y000829D01*
X001447Y000818D01*
X001398Y000811D01*
X001348Y000808D01*
X001297Y000809D01*
X001248Y000814D01*
X001198Y000823D01*
X001150Y000836D01*
X001103Y000852D01*
X001057Y000873D01*
X001013Y000897D01*
X000971Y000924D01*
X000931Y000954D01*
X000894Y000988D01*
X000860Y001025D01*
X000828Y001064D01*
X000800Y001105D01*
X000775Y001149D01*
X000754Y001194D01*
X000737Y001241D01*
X000723Y001289D01*
X000713Y001338D01*
X000707Y001388D01*
X000705Y001438D01*
X000705Y028838D02*
X000707Y028888D01*
X000713Y028938D01*
X000723Y028987D01*
X000737Y029035D01*
X000754Y029082D01*
X000775Y029127D01*
X000800Y029171D01*
X000828Y029212D01*
X000860Y029251D01*
X000894Y029288D01*
X000931Y029322D01*
X000971Y029352D01*
X001013Y029379D01*
X001057Y029403D01*
X001103Y029424D01*
X001150Y029440D01*
X001198Y029453D01*
X001248Y029462D01*
X001297Y029467D01*
X001348Y029468D01*
X001398Y029465D01*
X001447Y029458D01*
X001496Y029447D01*
X001544Y029432D01*
X001590Y029414D01*
X001635Y029392D01*
X001678Y029366D01*
X001719Y029337D01*
X001758Y029305D01*
X001794Y029270D01*
X001826Y029232D01*
X001856Y029192D01*
X001883Y029149D01*
X001906Y029105D01*
X001925Y029059D01*
X001941Y029011D01*
X001953Y028962D01*
X001961Y028913D01*
X001965Y028863D01*
X001965Y028813D01*
X001961Y028763D01*
X001953Y028714D01*
X001941Y028665D01*
X001925Y028617D01*
X001906Y028571D01*
X001883Y028527D01*
X001856Y028484D01*
X001826Y028444D01*
X001794Y028406D01*
X001758Y028371D01*
X001719Y028339D01*
X001678Y028310D01*
X001635Y028284D01*
X001590Y028262D01*
X001544Y028244D01*
X001496Y028229D01*
X001447Y028218D01*
X001398Y028211D01*
X001348Y028208D01*
X001297Y028209D01*
X001248Y028214D01*
X001198Y028223D01*
X001150Y028236D01*
X001103Y028252D01*
X001057Y028273D01*
X001013Y028297D01*
X000971Y028324D01*
X000931Y028354D01*
X000894Y028388D01*
X000860Y028425D01*
X000828Y028464D01*
X000800Y028505D01*
X000775Y028549D01*
X000754Y028594D01*
X000737Y028641D01*
X000723Y028689D01*
X000713Y028738D01*
X000707Y028788D01*
X000705Y028838D01*
X036955Y028838D02*
X036957Y028888D01*
X036963Y028938D01*
X036973Y028987D01*
X036987Y029035D01*
X037004Y029082D01*
X037025Y029127D01*
X037050Y029171D01*
X037078Y029212D01*
X037110Y029251D01*
X037144Y029288D01*
X037181Y029322D01*
X037221Y029352D01*
X037263Y029379D01*
X037307Y029403D01*
X037353Y029424D01*
X037400Y029440D01*
X037448Y029453D01*
X037498Y029462D01*
X037547Y029467D01*
X037598Y029468D01*
X037648Y029465D01*
X037697Y029458D01*
X037746Y029447D01*
X037794Y029432D01*
X037840Y029414D01*
X037885Y029392D01*
X037928Y029366D01*
X037969Y029337D01*
X038008Y029305D01*
X038044Y029270D01*
X038076Y029232D01*
X038106Y029192D01*
X038133Y029149D01*
X038156Y029105D01*
X038175Y029059D01*
X038191Y029011D01*
X038203Y028962D01*
X038211Y028913D01*
X038215Y028863D01*
X038215Y028813D01*
X038211Y028763D01*
X038203Y028714D01*
X038191Y028665D01*
X038175Y028617D01*
X038156Y028571D01*
X038133Y028527D01*
X038106Y028484D01*
X038076Y028444D01*
X038044Y028406D01*
X038008Y028371D01*
X037969Y028339D01*
X037928Y028310D01*
X037885Y028284D01*
X037840Y028262D01*
X037794Y028244D01*
X037746Y028229D01*
X037697Y028218D01*
X037648Y028211D01*
X037598Y028208D01*
X037547Y028209D01*
X037498Y028214D01*
X037448Y028223D01*
X037400Y028236D01*
X037353Y028252D01*
X037307Y028273D01*
X037263Y028297D01*
X037221Y028324D01*
X037181Y028354D01*
X037144Y028388D01*
X037110Y028425D01*
X037078Y028464D01*
X037050Y028505D01*
X037025Y028549D01*
X037004Y028594D01*
X036987Y028641D01*
X036973Y028689D01*
X036963Y028738D01*
X036957Y028788D01*
X036955Y028838D01*
X036955Y001438D02*
X036957Y001488D01*
X036963Y001538D01*
X036973Y001587D01*
X036987Y001635D01*
X037004Y001682D01*
X037025Y001727D01*
X037050Y001771D01*
X037078Y001812D01*
X037110Y001851D01*
X037144Y001888D01*
X037181Y001922D01*
X037221Y001952D01*
X037263Y001979D01*
X037307Y002003D01*
X037353Y002024D01*
X037400Y002040D01*
X037448Y002053D01*
X037498Y002062D01*
X037547Y002067D01*
X037598Y002068D01*
X037648Y002065D01*
X037697Y002058D01*
X037746Y002047D01*
X037794Y002032D01*
X037840Y002014D01*
X037885Y001992D01*
X037928Y001966D01*
X037969Y001937D01*
X038008Y001905D01*
X038044Y001870D01*
X038076Y001832D01*
X038106Y001792D01*
X038133Y001749D01*
X038156Y001705D01*
X038175Y001659D01*
X038191Y001611D01*
X038203Y001562D01*
X038211Y001513D01*
X038215Y001463D01*
X038215Y001413D01*
X038211Y001363D01*
X038203Y001314D01*
X038191Y001265D01*
X038175Y001217D01*
X038156Y001171D01*
X038133Y001127D01*
X038106Y001084D01*
X038076Y001044D01*
X038044Y001006D01*
X038008Y000971D01*
X037969Y000939D01*
X037928Y000910D01*
X037885Y000884D01*
X037840Y000862D01*
X037794Y000844D01*
X037746Y000829D01*
X037697Y000818D01*
X037648Y000811D01*
X037598Y000808D01*
X037547Y000809D01*
X037498Y000814D01*
X037448Y000823D01*
X037400Y000836D01*
X037353Y000852D01*
X037307Y000873D01*
X037263Y000897D01*
X037221Y000924D01*
X037181Y000954D01*
X037144Y000988D01*
X037110Y001025D01*
X037078Y001064D01*
X037050Y001105D01*
X037025Y001149D01*
X037004Y001194D01*
X036987Y001241D01*
X036973Y001289D01*
X036963Y001338D01*
X036957Y001388D01*
X036955Y001438D01*
D11*
X037635Y000188D02*
X001485Y000188D01*
X001415Y000190D01*
X001344Y000196D01*
X001275Y000205D01*
X001206Y000218D01*
X001137Y000235D01*
X001070Y000256D01*
X001004Y000280D01*
X000939Y000308D01*
X000876Y000339D01*
X000815Y000374D01*
X000755Y000412D01*
X000698Y000453D01*
X000643Y000497D01*
X000591Y000544D01*
X000541Y000594D01*
X000494Y000646D01*
X000450Y000701D01*
X000409Y000758D01*
X000371Y000818D01*
X000336Y000879D01*
X000305Y000942D01*
X000277Y001007D01*
X000253Y001073D01*
X000232Y001140D01*
X000215Y001209D01*
X000202Y001278D01*
X000193Y001347D01*
X000187Y001418D01*
X000185Y001488D01*
X000185Y028938D01*
X000187Y029002D01*
X000192Y029066D01*
X000202Y029129D01*
X000215Y029192D01*
X000231Y029253D01*
X000251Y029314D01*
X000275Y029374D01*
X000302Y029432D01*
X000332Y029488D01*
X000366Y029542D01*
X000403Y029595D01*
X000442Y029645D01*
X000485Y029693D01*
X000530Y029738D01*
X000578Y029781D01*
X000628Y029820D01*
X000681Y029857D01*
X000735Y029891D01*
X000791Y029921D01*
X000849Y029948D01*
X000909Y029972D01*
X000970Y029992D01*
X001031Y030008D01*
X001094Y030021D01*
X001157Y030031D01*
X001221Y030036D01*
X001285Y030038D01*
X037485Y030038D01*
X038685Y029038D02*
X038685Y001238D01*
X038683Y001175D01*
X038677Y001111D01*
X038668Y001049D01*
X038654Y000987D01*
X038637Y000926D01*
X038617Y000866D01*
X038592Y000807D01*
X038565Y000750D01*
X038534Y000695D01*
X038499Y000642D01*
X038462Y000590D01*
X038421Y000542D01*
X038377Y000496D01*
X038331Y000452D01*
X038283Y000411D01*
X038231Y000374D01*
X038178Y000339D01*
X038123Y000308D01*
X038066Y000281D01*
X038007Y000256D01*
X037947Y000236D01*
X037886Y000219D01*
X037824Y000205D01*
X037762Y000196D01*
X037698Y000190D01*
X037635Y000188D01*
X038735Y029038D02*
X038726Y029103D01*
X038713Y029168D01*
X038696Y029231D01*
X038676Y029294D01*
X038652Y029355D01*
X038624Y029415D01*
X038594Y029473D01*
X038559Y029530D01*
X038522Y029584D01*
X038481Y029636D01*
X038438Y029685D01*
X038392Y029732D01*
X038343Y029776D01*
X038291Y029817D01*
X038237Y029855D01*
X038182Y029890D01*
X038124Y029922D01*
X038064Y029950D01*
X038003Y029975D01*
X037941Y029996D01*
X037877Y030013D01*
X037813Y030027D01*
X037748Y030037D01*
X037682Y030043D01*
X037616Y030045D01*
X037551Y030043D01*
X037485Y030038D01*
M02*
